<?xml version="1.0" encoding="UTF-8"?>
<!DOCTYPE svg PUBLIC "-//W3C//DTD SVG 1.1//EN" "http://www.w3.org/Graphics/SVG/1.1/DTD/svg11.dtd">
<svg xmlns="http://www.w3.org/2000/svg" version="1.1" width="309px" height="309px" style="shape-rendering:geometricPrecision; text-rendering:geometricPrecision; image-rendering:optimizeQuality; fill-rule:evenodd; clip-rule:evenodd" xmlns:xlink="http://www.w3.org/1999/xlink">
<g><path style="opacity:1" fill="#fefefc" d="M -0.5,-0.5 C 43.8333,-0.5 88.1667,-0.5 132.5,-0.5C 131.22,0.931268 129.553,1.59794 127.5,1.5C 121.723,1.56412 116.39,2.89745 111.5,5.5C 102.922,7.5625 94.589,10.3958 86.5,14C 81.0151,16.5328 76.0151,19.6995 71.5,23.5C 67.4073,24.7131 63.7407,26.7131 60.5,29.5C 57.4855,32.679 54.1522,35.5123 50.5,38C 46.23,41.7615 42.5633,45.9281 39.5,50.5C 34.6164,54.0302 30.9497,58.3635 28.5,63.5C 25.092,69.39 21.2587,75.0566 17,80.5C 15.4409,84.2656 13.9409,87.9323 12.5,91.5C 10.0994,94.9915 8.43276,98.9915 7.5,103.5C 7.5,104.167 7.5,104.833 7.5,105.5C 6.88258,105.611 6.38258,105.944 6,106.5C 4.72284,111.493 3.55617,116.493 2.5,121.5C 2.00575,126.041 1.00575,130.374 -0.5,134.5C -0.5,89.5 -0.5,44.5 -0.5,-0.5 Z"/></g>
<g><path style="opacity:1" fill="#fee805" d="M 132.5,-0.5 C 145.5,-0.5 158.5,-0.5 171.5,-0.5C 183.774,2.16692 196.107,5.16692 208.5,8.5C 228.734,17.1479 247.067,29.1479 263.5,44.5C 268.307,48.961 272.307,53.961 275.5,59.5C 277.577,62.089 278.91,65.089 279.5,68.5C 282.694,70.2226 284.361,72.8893 284.5,76.5C 285.5,76.5 286.5,76.5 287.5,76.5C 287.998,79.3263 289.331,81.6597 291.5,83.5C 294.36,90.166 297.527,96.8326 301,103.5C 304.199,115.421 306.699,127.421 308.5,139.5C 308.5,149.5 308.5,159.5 308.5,169.5C 298.933,233.919 263.6,277.752 202.5,301C 191.561,304.371 180.561,306.871 169.5,308.5C 158.167,308.5 146.833,308.5 135.5,308.5C 135.5,307.833 135.167,307.5 134.5,307.5C 130.433,305.946 126.1,305.28 121.5,305.5C 64.0624,290.899 25.5624,255.566 6,199.5C 4.33308,189.922 2.16642,180.588 -0.5,171.5C -0.5,159.167 -0.5,146.833 -0.5,134.5C 1.00575,130.374 2.00575,126.041 2.5,121.5C 4.94221,116.502 6.60887,111.168 7.5,105.5C 7.5,104.833 7.5,104.167 7.5,103.5C 10.2184,100.048 11.8851,96.0484 12.5,91.5C 13.9409,87.9323 15.4409,84.2656 17,80.5C 21.2587,75.0566 25.092,69.39 28.5,63.5C 32.4765,59.5157 36.1432,55.1824 39.5,50.5C 40.5,50.5 41.5,50.5 42.5,50.5C 44.4153,45.4159 47.9153,41.7492 53,39.5C 53.3879,40.428 54.0546,41.0946 55,41.5C 57.4011,37.5947 59.9011,37.5947 62.5,41.5C 63.521,40.9984 63.6877,40.3317 63,39.5C 60.4194,38.6101 59.0861,36.9434 59,34.5C 63.5103,38.9475 64.3437,38.4475 61.5,33C 63.9706,29.8665 66.6372,29.3665 69.5,31.5C 70.1667,31.3333 70.8333,31.1667 71.5,31C 69.968,30.3005 68.968,29.1338 68.5,27.5C 69.8262,26.3578 70.8262,25.0245 71.5,23.5C 76.0151,19.6995 81.0151,16.5328 86.5,14C 94.589,10.3958 102.922,7.5625 111.5,5.5C 116.978,4.37212 122.311,3.03878 127.5,1.5C 129.553,1.59794 131.22,0.931268 132.5,-0.5 Z"/></g>
<g><path style="opacity:1" fill="#fefefc" d="M 179.5,-0.5 C 222.5,-0.5 265.5,-0.5 308.5,-0.5C 308.5,46.1667 308.5,92.8333 308.5,139.5C 306.699,127.421 304.199,115.421 301,103.5C 297.527,96.8326 294.36,90.166 291.5,83.5C 291.657,82.1266 291.49,80.7932 291,79.5C 286.922,75.0161 283.589,70.0161 281,64.5C 279.296,62.6266 277.463,60.9599 275.5,59.5C 272.307,53.961 268.307,48.961 263.5,44.5C 247.067,29.1479 228.734,17.1479 208.5,8.5C 207.192,7.7677 205.858,6.93436 204.5,6C 206.645,5.25688 206.811,4.42355 205,3.5C 202.547,4.49288 200.047,4.65955 197.5,4C 200.742,3.71673 201.076,2.8834 198.5,1.5C 191.848,3.00198 185.514,2.33532 179.5,-0.5 Z"/></g>
<g><path style="opacity:1" fill="#fef797" d="M 127.5,1.5 C 122.311,3.03878 116.978,4.37212 111.5,5.5C 116.39,2.89745 121.723,1.56412 127.5,1.5 Z"/></g>
<g><path style="opacity:1" fill="#fefede" d="M 171.5,-0.5 C 174.167,-0.5 176.833,-0.5 179.5,-0.5C 185.514,2.33532 191.848,3.00198 198.5,1.5C 201.076,2.8834 200.742,3.71673 197.5,4C 200.047,4.65955 202.547,4.49288 205,3.5C 206.811,4.42355 206.645,5.25688 204.5,6C 205.858,6.93436 207.192,7.7677 208.5,8.5C 196.107,5.16692 183.774,2.16692 171.5,-0.5 Z"/></g>
<g><path style="opacity:1" fill="#fcea40" d="M 71.5,23.5 C 70.8262,25.0245 69.8262,26.3578 68.5,27.5C 68.968,29.1338 69.968,30.3005 71.5,31C 70.8333,31.1667 70.1667,31.3333 69.5,31.5C 66.6372,29.3665 63.9706,29.8665 61.5,33C 64.3437,38.4475 63.5103,38.9475 59,34.5C 59.0861,36.9434 60.4194,38.6101 63,39.5C 63.6877,40.3317 63.521,40.9984 62.5,41.5C 59.9011,37.5947 57.4011,37.5947 55,41.5C 54.0546,41.0946 53.3879,40.428 53,39.5C 47.9153,41.7492 44.4153,45.4159 42.5,50.5C 41.5,50.5 40.5,50.5 39.5,50.5C 42.5633,45.9281 46.23,41.7615 50.5,38C 54.1522,35.5123 57.4855,32.679 60.5,29.5C 63.7407,26.7131 67.4073,24.7131 71.5,23.5 Z"/></g>
<g><path style="opacity:1" fill="#fcf584" d="M 39.5,50.5 C 36.1432,55.1824 32.4765,59.5157 28.5,63.5C 30.9497,58.3635 34.6164,54.0302 39.5,50.5 Z"/></g>
<g><path style="opacity:1" fill="#040202" d="M 180.5,61.5 C 184.978,63.1231 189.645,64.4565 194.5,65.5C 192.675,73.1332 191.008,80.7999 189.5,88.5C 188.539,90.2646 188.205,92.2646 188.5,94.5C 196.48,96.4984 203.814,99.8317 210.5,104.5C 211.585,106.587 213.251,107.92 215.5,108.5C 218.699,112.232 220.866,116.565 222,121.5C 223.75,133.495 220.25,143.662 211.5,152C 208.006,153.579 204.673,155.413 201.5,157.5C 208.6,162.097 214.1,168.097 218,175.5C 219.596,185.679 218.096,195.346 213.5,204.5C 211.75,205.659 210.75,207.326 210.5,209.5C 204.989,216.096 197.989,220.43 189.5,222.5C 178.125,223.868 166.792,223.535 155.5,221.5C 153.342,230.465 151.342,239.465 149.5,248.5C 143.748,247.979 138.082,246.979 132.5,245.5C 134.508,235.791 136.508,226.124 138.5,216.5C 133.799,216.043 129.132,215.376 124.5,214.5C 122.958,223.54 121.292,232.54 119.5,241.5C 113.86,240.715 108.36,239.382 103,237.5C 102.333,235.5 102.333,233.5 103,231.5C 105.282,223.921 107.115,216.254 108.5,208.5C 97.0352,206.467 85.7018,203.801 74.5,200.5C 77.3529,194.618 80.0196,188.618 82.5,182.5C 85.5527,181.835 88.5527,182.335 91.5,184C 98.0773,186.13 102.244,183.964 104,177.5C 110.255,152.741 116.089,127.908 121.5,103C 121.569,100.093 120.569,97.7597 118.5,96C 113.495,93.3325 108.161,91.8325 102.5,91.5C 103.82,85.5531 104.82,79.5531 105.5,73.5C 117.456,76.3745 129.456,79.0411 141.5,81.5C 143.009,72.7883 144.843,64.1216 147,55.5C 147.893,54.9186 148.893,54.5852 150,54.5C 154.496,55.5828 158.996,56.5828 163.5,57.5C 162.123,66.964 160.123,76.2973 157.5,85.5C 162.066,86.8073 166.733,87.474 171.5,87.5C 173.628,78.8609 175.628,70.1942 177.5,61.5C 178.5,61.5 179.5,61.5 180.5,61.5 Z"/></g>
<g><path style="opacity:1" fill="#f8ee55" d="M 275.5,59.5 C 277.463,60.9599 279.296,62.6266 281,64.5C 283.589,70.0161 286.922,75.0161 291,79.5C 291.49,80.7932 291.657,82.1266 291.5,83.5C 289.331,81.6597 287.998,79.3263 287.5,76.5C 286.5,76.5 285.5,76.5 284.5,76.5C 284.361,72.8893 282.694,70.2226 279.5,68.5C 278.91,65.089 277.577,62.089 275.5,59.5 Z"/></g>
<g><path style="opacity:1" fill="#e0d123" d="M 189.5,88.5 C 191.008,80.7999 192.675,73.1332 194.5,65.5C 189.645,64.4565 184.978,63.1231 180.5,61.5C 182.766,61.8588 184.599,61.1922 186,59.5C 188.293,61.8696 191.126,63.2029 194.5,63.5C 194.833,64.5 195.167,65.5 195.5,66.5C 194.868,70.817 194.368,75.1503 194,79.5C 193.169,82.9024 191.669,85.9024 189.5,88.5 Z"/></g>
<g><path style="opacity:1" fill="#fef790" d="M 12.5,91.5 C 11.8851,96.0484 10.2184,100.048 7.5,103.5C 8.43276,98.9915 10.0994,94.9915 12.5,91.5 Z"/></g>
<g><path style="opacity:1" fill="#908507" d="M 210.5,104.5 C 212.749,105.08 214.415,106.413 215.5,108.5C 213.251,107.92 211.585,106.587 210.5,104.5 Z"/></g>
<g><path style="opacity:1" fill="#fae60b" d="M 152.5,105.5 C 165.522,106.62 177.022,111.287 187,119.5C 191.671,135.854 185.337,143.854 168,143.5C 160.577,143.515 153.411,142.182 146.5,139.5C 145.353,137.235 145.186,134.902 146,132.5C 148.329,123.516 150.496,114.516 152.5,105.5 Z"/></g>
<g><path style="opacity:1" fill="#fdf487" d="M 7.5,105.5 C 6.60887,111.168 4.94221,116.502 2.5,121.5C 3.55617,116.493 4.72284,111.493 6,106.5C 6.38258,105.944 6.88258,105.611 7.5,105.5 Z"/></g>
<g><path style="opacity:1" fill="#e8d81f" d="M 165.5,163.5 C 159.988,162.191 154.321,161.191 148.5,160.5C 145.185,159.984 143.018,161.317 142,164.5C 141.667,163.167 141.333,161.833 141,160.5C 138.467,167.354 137.8,174.354 139,181.5C 138.71,179.956 138.044,178.623 137,177.5C 136.764,179.119 135.931,180.119 134.5,180.5C 136.167,172.5 137.833,164.5 139.5,156.5C 148.706,157.299 157.372,159.632 165.5,163.5 Z"/></g>
<g><path style="opacity:1" fill="#fde803" d="M 165.5,163.5 C 173.216,165.223 178.883,169.557 182.5,176.5C 183.19,182.261 181.69,187.261 178,191.5C 177.333,189.5 176.667,187.5 176,185.5C 175.689,187.556 175.189,189.556 174.5,191.5C 174.709,192.086 175.043,192.586 175.5,193C 172.802,193.613 170.135,194.28 167.5,195C 168.833,195.667 168.833,196.333 167.5,197C 159.488,197.499 151.488,197.333 143.5,196.5C 143.167,196.5 142.833,196.5 142.5,196.5C 139.592,194.395 136.258,193.395 132.5,193.5C 133.875,189.302 134.542,184.969 134.5,180.5C 135.931,180.119 136.764,179.119 137,177.5C 138.044,178.623 138.71,179.956 139,181.5C 137.8,174.354 138.467,167.354 141,160.5C 141.333,161.833 141.667,163.167 142,164.5C 143.018,161.317 145.185,159.984 148.5,160.5C 154.321,161.191 159.988,162.191 165.5,163.5 Z"/></g>
<g><path style="opacity:1" fill="#fefefb" d="M 308.5,169.5 C 308.5,215.833 308.5,262.167 308.5,308.5C 262.167,308.5 215.833,308.5 169.5,308.5C 180.561,306.871 191.561,304.371 202.5,301C 263.6,277.752 298.933,233.919 308.5,169.5 Z"/></g>
<g><path style="opacity:1" fill="#c7bb25" d="M 134.5,180.5 C 134.542,184.969 133.875,189.302 132.5,193.5C 136.258,193.395 139.592,194.395 142.5,196.5C 138.833,195.833 135.167,195.167 131.5,194.5C 131.717,189.553 132.717,184.886 134.5,180.5 Z"/></g>
<g><path style="opacity:1" fill="#fefefb" d="M -0.5,171.5 C 2.16642,180.588 4.33308,189.922 6,199.5C 25.5624,255.566 64.0624,290.899 121.5,305.5C 125.567,307.054 129.9,307.72 134.5,307.5C 135.167,307.5 135.5,307.833 135.5,308.5C 90.1667,308.5 44.8333,308.5 -0.5,308.5C -0.5,262.833 -0.5,217.167 -0.5,171.5 Z"/></g>
<g><path style="opacity:1" fill="#e5d71b" d="M 182.5,176.5 C 185.023,192.636 177.856,200.302 161,199.5C 154.882,199.368 149.049,198.368 143.5,196.5C 151.488,197.333 159.488,197.499 167.5,197C 168.833,196.333 168.833,195.667 167.5,195C 170.135,194.28 172.802,193.613 175.5,193C 175.043,192.586 174.709,192.086 174.5,191.5C 175.189,189.556 175.689,187.556 176,185.5C 176.667,187.5 177.333,189.5 178,191.5C 181.69,187.261 183.19,182.261 182.5,176.5 Z"/></g>
<g><path style="opacity:1" fill="#9c9413" d="M 213.5,204.5 C 213.408,206.848 212.408,208.514 210.5,209.5C 210.75,207.326 211.75,205.659 213.5,204.5 Z"/></g>
<g><path style="opacity:1" fill="#ded021" d="M 189.5,222.5 C 189.082,223.222 188.416,223.722 187.5,224C 178.173,224.5 168.839,224.666 159.5,224.5C 159.404,228.311 158.738,228.311 157.5,224.5C 156.573,226.113 155.739,227.779 155,229.5C 153.408,235.886 152.242,242.386 151.5,249C 150.391,249.638 149.225,250.138 148,250.5C 142.174,250.402 137.007,248.736 132.5,245.5C 138.082,246.979 143.748,247.979 149.5,248.5C 151.342,239.465 153.342,230.465 155.5,221.5C 166.792,223.535 178.125,223.868 189.5,222.5 Z"/></g>
<g><path style="opacity:1" fill="#fef58c" d="M 121.5,305.5 C 126.1,305.28 130.433,305.946 134.5,307.5C 129.9,307.72 125.567,307.054 121.5,305.5 Z"/></g>
</svg>
