<?xml version="1.0" encoding="UTF-8"?>
<!DOCTYPE svg PUBLIC "-//W3C//DTD SVG 1.1//EN" "http://www.w3.org/Graphics/SVG/1.1/DTD/svg11.dtd">
<svg xmlns="http://www.w3.org/2000/svg" version="1.1" width="309px" height="309px" style="shape-rendering:geometricPrecision; text-rendering:geometricPrecision; image-rendering:optimizeQuality; fill-rule:evenodd; clip-rule:evenodd" xmlns:xlink="http://www.w3.org/1999/xlink">
<g><path style="opacity:0.992" fill="#5445fe" d="M 136.5,-0.5 C 148.167,-0.5 159.833,-0.5 171.5,-0.5C 236.253,9.74796 279.753,45.748 302,107.5C 304.764,117.17 306.931,126.837 308.5,136.5C 308.5,148.167 308.5,159.833 308.5,171.5C 298.726,233.542 264.726,276.376 206.5,300C 194.963,303.935 183.296,306.769 171.5,308.5C 159.833,308.5 148.167,308.5 136.5,308.5C 74.4578,298.726 31.6245,264.726 8,206.5C 4.06479,194.963 1.23146,183.296 -0.5,171.5C -0.5,159.833 -0.5,148.167 -0.5,136.5C 9.27433,74.4578 43.2743,31.6245 101.5,8C 113.037,4.06479 124.704,1.23146 136.5,-0.5 Z"/></g>
<g><path style="opacity:1" fill="#000000" d="M 162.5,36.5 C 225.338,35.197 266.838,64.197 287,123.5C 288.678,132.264 289.844,141.097 290.5,150C 290.161,160.678 285.828,169.344 277.5,176C 260.314,186.619 241.647,193.286 221.5,196C 215.138,196.855 208.804,197.855 202.5,199C 166.478,202.44 131.145,199.107 96.5,189C 83.9606,184.817 73.1273,177.983 64,168.5C 60.9506,164.353 59.2839,159.687 59,154.5C 60.4133,100.761 85.9133,63.5948 135.5,43C 144.622,40.6346 153.622,38.4679 162.5,36.5 Z"/></g>
</svg>
