<?xml version="1.0" encoding="UTF-8"?>
<!DOCTYPE svg PUBLIC "-//W3C//DTD SVG 1.1//EN" "http://www.w3.org/Graphics/SVG/1.1/DTD/svg11.dtd">
<svg xmlns="http://www.w3.org/2000/svg" version="1.1" width="2000px" height="2000px" style="shape-rendering:geometricPrecision; text-rendering:geometricPrecision; image-rendering:optimizeQuality; fill-rule:evenodd; clip-rule:evenodd" xmlns:xlink="http://www.w3.org/1999/xlink">
<g><path style="opacity:0.999" fill="#ea462b" d="M 954.5,-0.5 C 984.5,-0.5 1014.5,-0.5 1044.5,-0.5C 1312.39,15.0547 1539.55,118.388 1726,309.5C 1894.34,490.949 1985.51,705.949 1999.5,954.5C 1999.5,984.5 1999.5,1014.5 1999.5,1044.5C 1983.94,1312.39 1880.61,1539.56 1689.5,1726C 1507.79,1894.64 1292.46,1985.8 1043.5,1999.5C 1014.17,1999.5 984.833,1999.5 955.5,1999.5C 687.2,1984.24 459.7,1880.91 273,1689.5C 104.659,1508.05 13.492,1293.05 -0.5,1044.5C -0.5,1014.5 -0.5,984.5 -0.5,954.5C 15.0573,686.607 118.391,459.441 309.5,273C 490.949,104.659 705.949,13.4921 954.5,-0.5 Z"/></g>
<g><path style="opacity:1" fill="#fefefe" d="M 776.5,291.5 C 794.338,289.861 805.838,297.528 811,314.5C 812.627,338.784 812.961,363.117 812,387.5C 811.348,401.794 805.181,412.961 793.5,421C 684.846,461.032 593.346,525.199 519,613.5C 436.406,717.202 389.406,835.536 378,968.5C 369.401,1146.4 424.068,1301.4 542,1433.5C 610.421,1506.88 691.921,1560.72 786.5,1595C 799.212,1603.38 807.712,1614.88 812,1629.5C 812.667,1652.83 812.667,1676.17 812,1699.5C 809.014,1705.76 806.014,1712.1 803,1718.5C 795.784,1726.18 786.951,1729.02 776.5,1727C 580.153,1662.96 432.653,1540.46 334,1359.5C 247.665,1190.81 225.998,1014.14 269,829.5C 314.665,653.289 410.165,511.122 555.5,403C 621.144,355.677 692.81,319.677 770.5,295C 772.432,293.541 774.432,292.375 776.5,291.5 Z"/></g>
<g><path style="opacity:1" fill="#fefefe" d="M 1209.5,292.5 C 1213.51,292.334 1217.51,292.501 1221.5,293C 1416.2,357.061 1563.03,478.561 1662,657.5C 1747.84,821.865 1771.84,994.865 1734,1176.5C 1690.09,1363.63 1590.93,1513.47 1436.5,1626C 1368.89,1673.62 1295.23,1709.12 1215.5,1732.5C 1198.18,1730.68 1188.68,1721.01 1187,1703.5C 1186.33,1680.17 1186.33,1656.83 1187,1633.5C 1189.37,1618.47 1197.2,1607.3 1210.5,1600C 1352.66,1546.82 1462.16,1454.99 1539,1324.5C 1629.38,1159.8 1645.71,988.134 1588,809.5C 1529.74,648.24 1423.9,529.407 1270.5,453C 1251.49,444.219 1232.16,436.219 1212.5,429C 1198.83,419.649 1190.33,406.816 1187,390.5C 1186.33,366.833 1186.33,343.167 1187,319.5C 1189.82,311.031 1194.32,303.531 1200.5,297C 1203.32,294.921 1206.32,293.421 1209.5,292.5 Z"/></g>
<g><path style="opacity:1" fill="#fffefe" d="M 930.5,637.5 C 931.5,637.5 932.5,637.5 933.5,637.5C 933.5,604.833 933.5,572.167 933.5,539.5C 935.872,523.296 944.872,512.796 960.5,508C 983.5,507.333 1006.5,507.333 1029.5,508C 1042.34,510.157 1052.17,516.657 1059,527.5C 1060.4,530.363 1061.4,533.363 1062,536.5C 1062.5,571.498 1062.67,606.498 1062.5,641.5C 1154.75,653.364 1215.59,703.364 1245,791.5C 1247.3,799.018 1248.8,806.685 1249.5,814.5C 1249.05,831.269 1240.72,841.436 1224.5,845C 1198.83,845.667 1173.17,845.667 1147.5,845C 1138.18,842.261 1131.01,836.761 1126,828.5C 1110.57,776.078 1075.74,746.245 1021.5,739C 1001.85,737.541 982.187,737.208 962.5,738C 935.157,739.852 910.823,749.185 889.5,766C 866.881,788.862 858.048,816.362 863,848.5C 864.948,875.584 877.448,896.084 900.5,910C 926.544,923.792 954.211,932.792 983.5,937C 1025.54,941.819 1067.21,948.819 1108.5,958C 1141.71,965.951 1172.71,978.951 1201.5,997C 1244.58,1027.96 1268.41,1070.13 1273,1123.5C 1282.17,1232.35 1237.67,1310.18 1139.5,1357C 1116.02,1367.1 1091.69,1374.27 1066.5,1378.5C 1066.67,1412.17 1066.5,1445.83 1066,1479.5C 1063.37,1494.44 1055.21,1504.94 1041.5,1511C 1028.71,1512.12 1015.88,1512.62 1003,1512.5C 991.833,1512.33 980.667,1512.17 969.5,1512C 955.525,1509.45 945.358,1501.95 939,1489.5C 938.489,1487.12 937.822,1484.79 937,1482.5C 936.5,1447.83 936.333,1413.17 936.5,1378.5C 880.61,1371.87 830.943,1351.04 787.5,1316C 744.047,1275.67 720.547,1225.84 717,1166.5C 720.5,1156.33 727.333,1149.5 737.5,1146C 765.833,1145.33 794.167,1145.33 822.5,1146C 832.815,1148.98 839.982,1155.48 844,1165.5C 853.735,1225.9 888.568,1262.07 948.5,1274C 982.585,1280.33 1016.58,1280 1050.5,1273C 1122.54,1251.09 1151.04,1203.25 1136,1129.5C 1130.35,1114.69 1121.18,1102.53 1108.5,1093C 1089.65,1081.04 1069.32,1072.38 1047.5,1067C 1027.74,1061.59 1007.74,1057.26 987.5,1054C 936.475,1049.24 887.142,1037.58 839.5,1019C 767.688,987.929 730.855,933.096 729,854.5C 726.543,776.906 757.71,717.073 822.5,675C 855.824,654.84 891.824,642.34 930.5,637.5 Z"/></g>
<g><path style="opacity:1" fill="#f8c0b7" d="M 933.5,539.5 C 933.5,572.167 933.5,604.833 933.5,637.5C 932.5,637.5 931.5,637.5 930.5,637.5C 932.152,604.885 933.152,572.219 933.5,539.5 Z"/></g>
</svg>
