<?xml version="1.0" encoding="UTF-8"?>
<!DOCTYPE svg PUBLIC "-//W3C//DTD SVG 1.1//EN" "http://www.w3.org/Graphics/SVG/1.1/DTD/svg11.dtd">
<svg xmlns="http://www.w3.org/2000/svg" version="1.1" width="340px" height="241px" style="shape-rendering:geometricPrecision; text-rendering:geometricPrecision; image-rendering:optimizeQuality; fill-rule:evenodd; clip-rule:evenodd" xmlns:xlink="http://www.w3.org/1999/xlink">
<g><path style="opacity:0.991" fill="#ea462a" d="M 151.5,-0.5 C 163.5,-0.5 175.5,-0.5 187.5,-0.5C 251.324,9.48603 297.49,43.486 326,101.5C 333.312,118.24 337.812,135.573 339.5,153.5C 339.5,161.167 339.5,168.833 339.5,176.5C 334.965,192.557 325.298,204.724 310.5,213C 293.106,222.242 274.773,228.909 255.5,233C 237.489,236.499 219.489,238.999 201.5,240.5C 179.833,240.5 158.167,240.5 136.5,240.5C 117.186,238.115 97.8529,234.948 78.5,231C 57.515,226.836 38.1817,218.836 20.5,207C 10.6446,199.395 3.64464,189.895 -0.5,178.5C -0.5,168.833 -0.5,159.167 -0.5,149.5C 10.0478,85.1044 45.0478,39.271 104.5,12C 119.836,6.0846 135.503,1.91793 151.5,-0.5 Z M 193.5,51.5 C 231.567,51.4512 262.067,66.4512 285,96.5C 299.341,117.525 304.675,140.525 301,165.5C 293.313,175.766 283.479,183.266 271.5,188C 243.198,197.11 214.198,200.443 184.5,198C 167.948,197.159 151.614,194.826 135.5,191C 118.612,187.323 105.779,178.157 97,163.5C 94.4941,119.342 112.327,86.1758 150.5,64C 164.19,57.1656 178.523,52.999 193.5,51.5 Z"/></g>
</svg>
